<svg width="24" height="24" viewBox="0 0 24 24" fill="none" xmlns="http://www.w3.org/2000/svg" preserveAspectRatio="xMinYMid meet">
<path fill-rule="evenodd" clip-rule="evenodd" d="M4.5 8C4.5 6.61929 5.61929 5.5 7 5.5H17C18.3807 5.5 19.5 6.61929 19.5 8V9.5C19.5 9.77614 19.2761 10 19 10C18.4477 10 18 10.4477 18 11C18 11.5523 18.4477 12 19 12C19.2761 12 19.5 12.2239 19.5 12.5V14C19.5 15.3807 18.3807 16.5 17 16.5H7C5.61929 16.5 4.5 15.3807 4.5 14V12.5C4.5 12.2239 4.72386 12 5 12C5.55228 12 6 11.5523 6 11C6 10.4477 5.55228 10 5 10C4.72386 10 4.5 9.77614 4.5 9.5V8ZM7 6.5C6.17157 6.5 5.5 7.17157 5.5 8V9.06301C6.35367 9.28542 7 10.0684 7 11C7 11.9316 6.35367 12.7146 5.5 12.937V14C5.5 14.8284 6.17157 15.5 7 15.5H17C17.8284 15.5 18.5 14.8284 18.5 14V12.937C17.6463 12.7146 17 11.9316 17 11C17 10.0684 17.6463 9.28542 18.5 9.06301V8C18.5 7.17157 17.8284 6.5 17 6.5H7Z" fill="#212529"/>
<path d="M11.5 8.5C11.7761 8.5 12 8.72386 12 9V9.5C12 9.77614 11.7761 10 11.5 10C11.2239 10 11 9.77614 11 9.5V9C11 8.72386 11.2239 8.5 11.5 8.5Z" fill="#212529"/>
<path d="M12 11.5C12 11.2239 11.7761 11 11.5 11C11.2239 11 11 11.2239 11 11.5V12.5C11 12.7761 11.2239 13 11.5 13C11.7761 13 12 12.7761 12 12.5V11.5Z" fill="#212529"/>
<path d="M11.5 14C11.7761 14 12 14.2239 12 14.5V15C12 15.2761 11.7761 15.5 11.5 15.5C11.2239 15.5 11 15.2761 11 15V14.5C11 14.2239 11.2239 14 11.5 14Z" fill="#212529"/>
</svg>
